<?xml version="1.0" encoding="UTF-8" standalone="no"?>
<!DOCTYPE svg PUBLIC "-//W3C//DTD SVG 1.1//EN"
 "http://www.w3.org/Graphics/SVG/1.1/DTD/svg11.dtd">
<!-- Generated by graphviz version 2.40.1 (20161225.0304)
 -->
<!-- Title: dependencies Pages: 1 -->
<svg width="3136pt" height="284pt"
 viewBox="0.00 0.00 3136.00 284.00" xmlns="http://www.w3.org/2000/svg" xmlns:xlink="http://www.w3.org/1999/xlink">
<g id="graph0" class="graph" transform="scale(1 1) rotate(0) translate(4 280)">
<title>dependencies</title>
<polygon fill="#ffffff" stroke="transparent" points="-4,4 -4,-280 3132,-280 3132,4 -4,4"/>
<text text-anchor="start" x="1543.0091" y="-42.4" font-family="sans-serif" font-weight="bold" font-size="14.00" fill="#000000">Legend</text>
<polygon fill="#ffffb3" stroke="transparent" points="1330,-10 1330,-30 1350,-30 1350,-10 1330,-10"/>
<text text-anchor="start" x="1353.629" y="-15.4" font-family="sans-serif" font-size="14.00" fill="#000000"> &#160;Declarations</text>
<polygon fill="#8dd3c7" stroke="transparent" points="1443,-10 1443,-30 1463,-30 1463,-10 1443,-10"/>
<text text-anchor="start" x="1466.7251" y="-15.4" font-family="sans-serif" font-size="14.00" fill="#000000"> &#160;Module</text>
<polygon fill="#80b1d3" stroke="transparent" points="1529,-10 1529,-30 1549,-30 1549,-10 1529,-10"/>
<text text-anchor="start" x="1552.7812" y="-15.4" font-family="sans-serif" font-size="14.00" fill="#000000"> &#160;Bootstrap</text>
<polygon fill="#fdb462" stroke="transparent" points="1626,-10 1626,-30 1646,-30 1646,-10 1626,-10"/>
<text text-anchor="start" x="1649.6732" y="-15.4" font-family="sans-serif" font-size="14.00" fill="#000000"> &#160;Providers</text>
<polygon fill="#fb8072" stroke="transparent" points="1722,-10 1722,-30 1742,-30 1742,-10 1722,-10"/>
<text text-anchor="start" x="1745.7258" y="-15.4" font-family="sans-serif" font-size="14.00" fill="#000000"> &#160;Exports</text>
<g id="clust1" class="cluster">
<title>cluster_DynamicTableModule</title>
<polygon fill="none" stroke="#000000" stroke-dasharray="1,5" points="8,-70 8,-268 3120,-268 3120,-70 8,-70"/>
</g>
<g id="clust2" class="cluster">
<title>cluster_DynamicTableModule_declarations</title>
<polygon fill="none" stroke="#000000" points="596,-78 596,-130 3112,-130 3112,-78 596,-78"/>
</g>
<g id="clust14" class="cluster">
<title>cluster_DynamicTableModule_exports</title>
<polygon fill="none" stroke="#000000" points="445,-208 445,-260 2716,-260 2716,-208 445,-208"/>
</g>
<g id="clust16" class="cluster">
<title>cluster_DynamicTableModule_providers</title>
<polygon fill="none" stroke="#000000" points="16,-78 16,-130 588,-130 588,-78 16,-78"/>
</g>
<!-- DynamicTableActionsContainerDirective -->
<g id="node1" class="node">
<title>DynamicTableActionsContainerDirective</title>
<polygon fill="#ffffb3" stroke="#000000" points="3104.0268,-122 2853.9732,-122 2853.9732,-86 3104.0268,-86 3104.0268,-122"/>
<text text-anchor="middle" x="2979" y="-99.8" font-family="Times,serif" font-size="14.00" fill="#000000">DynamicTableActionsContainerDirective</text>
</g>
<!-- DynamicTableModule -->
<g id="node11" class="node">
<title>DynamicTableModule</title>
<polygon fill="#8dd3c7" stroke="#000000" points="1629.2394,-187 1626.2394,-191 1605.2394,-191 1602.2394,-187 1486.7606,-187 1486.7606,-151 1629.2394,-151 1629.2394,-187"/>
<text text-anchor="middle" x="1558" y="-164.8" font-family="Times,serif" font-size="14.00" fill="#000000">DynamicTableModule</text>
</g>
<!-- DynamicTableActionsContainerDirective&#45;&gt;DynamicTableModule -->
<g id="edge1" class="edge">
<title>DynamicTableActionsContainerDirective&#45;&gt;DynamicTableModule</title>
<path fill="none" stroke="#000000" d="M2979,-122.1061C2979,-141.3391 2979,-169 2979,-169 2979,-169 1639.4414,-169 1639.4414,-169"/>
<polygon fill="#000000" stroke="#000000" points="1639.4415,-165.5001 1629.4414,-169 1639.4414,-172.5001 1639.4415,-165.5001"/>
</g>
<!-- DynamicTableColumnsContainerDirective -->
<g id="node2" class="node">
<title>DynamicTableColumnsContainerDirective</title>
<polygon fill="#ffffb3" stroke="#000000" points="2835.5422,-122 2578.4578,-122 2578.4578,-86 2835.5422,-86 2835.5422,-122"/>
<text text-anchor="middle" x="2707" y="-99.8" font-family="Times,serif" font-size="14.00" fill="#000000">DynamicTableColumnsContainerDirective</text>
</g>
<!-- DynamicTableColumnsContainerDirective&#45;&gt;DynamicTableModule -->
<g id="edge2" class="edge">
<title>DynamicTableColumnsContainerDirective&#45;&gt;DynamicTableModule</title>
<path fill="none" stroke="#000000" d="M2643.1212,-122.2667C2643.1212,-140.5552 2643.1212,-166 2643.1212,-166 2643.1212,-166 1639.6175,-166 1639.6175,-166"/>
<polygon fill="#000000" stroke="#000000" points="1639.6175,-162.5001 1629.6175,-166 1639.6174,-169.5001 1639.6175,-162.5001"/>
</g>
<!-- DynamicTableComponent -->
<g id="node3" class="node">
<title>DynamicTableComponent</title>
<polygon fill="#ffffb3" stroke="#000000" points="2560.0225,-122 2395.9775,-122 2395.9775,-86 2560.0225,-86 2560.0225,-122"/>
<text text-anchor="middle" x="2478" y="-99.8" font-family="Times,serif" font-size="14.00" fill="#000000">DynamicTableComponent</text>
</g>
<!-- DynamicTableComponent&#45;&gt;DynamicTableModule -->
<g id="edge3" class="edge">
<title>DynamicTableComponent&#45;&gt;DynamicTableModule</title>
<path fill="none" stroke="#000000" d="M2415.875,-122.0336C2415.875,-139.0597 2415.875,-162 2415.875,-162 2415.875,-162 1639.2995,-162 1639.2995,-162"/>
<polygon fill="#000000" stroke="#000000" points="1639.2995,-158.5001 1629.2995,-162 1639.2995,-165.5001 1639.2995,-158.5001"/>
</g>
<!-- DynamicTableContainerDirective -->
<g id="node4" class="node">
<title>DynamicTableContainerDirective</title>
<polygon fill="#ffffb3" stroke="#000000" points="2377.4804,-122 2170.5196,-122 2170.5196,-86 2377.4804,-86 2377.4804,-122"/>
<text text-anchor="middle" x="2274" y="-99.8" font-family="Times,serif" font-size="14.00" fill="#000000">DynamicTableContainerDirective</text>
</g>
<!-- DynamicTableContainerDirective&#45;&gt;DynamicTableModule -->
<g id="edge4" class="edge">
<title>DynamicTableContainerDirective&#45;&gt;DynamicTableModule</title>
<path fill="none" stroke="#000000" d="M2210.375,-122.0091C2210.375,-138.0494 2210.375,-159 2210.375,-159 2210.375,-159 1639.3693,-159 1639.3693,-159"/>
<polygon fill="#000000" stroke="#000000" points="1639.3693,-155.5001 1629.3693,-159 1639.3693,-162.5001 1639.3693,-155.5001"/>
</g>
<!-- DynamicTableContentSummaryContainerDirective -->
<g id="node5" class="node">
<title>DynamicTableContentSummaryContainerDirective</title>
<polygon fill="#ffffb3" stroke="#000000" points="2152.7513,-122 1847.2487,-122 1847.2487,-86 2152.7513,-86 2152.7513,-122"/>
<text text-anchor="middle" x="2000" y="-99.8" font-family="Times,serif" font-size="14.00" fill="#000000">DynamicTableContentSummaryContainerDirective</text>
</g>
<!-- DynamicTableContentSummaryContainerDirective&#45;&gt;DynamicTableModule -->
<g id="edge5" class="edge">
<title>DynamicTableContentSummaryContainerDirective&#45;&gt;DynamicTableModule</title>
<path fill="none" stroke="#000000" d="M1934.875,-122.1243C1934.875,-136.7832 1934.875,-155 1934.875,-155 1934.875,-155 1639.3304,-155 1639.3304,-155"/>
<polygon fill="#000000" stroke="#000000" points="1639.3304,-151.5001 1629.3304,-155 1639.3303,-158.5001 1639.3304,-151.5001"/>
</g>
<!-- DynamicTableDescriptionContainerDirective -->
<g id="node6" class="node">
<title>DynamicTableDescriptionContainerDirective</title>
<polygon fill="#ffffb3" stroke="#000000" points="1828.7927,-122 1557.2073,-122 1557.2073,-86 1828.7927,-86 1828.7927,-122"/>
<text text-anchor="middle" x="1693" y="-99.8" font-family="Times,serif" font-size="14.00" fill="#000000">DynamicTableDescriptionContainerDirective</text>
</g>
<!-- DynamicTableDescriptionContainerDirective&#45;&gt;DynamicTableModule -->
<g id="edge6" class="edge">
<title>DynamicTableDescriptionContainerDirective&#45;&gt;DynamicTableModule</title>
<path fill="none" stroke="#000000" d="M1593.2367,-122.1061C1593.2367,-122.1061 1593.2367,-140.991 1593.2367,-140.991"/>
<polygon fill="#000000" stroke="#000000" points="1589.7367,-140.9909 1593.2367,-150.991 1596.7367,-140.991 1589.7367,-140.9909"/>
</g>
<!-- DynamicTableIconContainerDirective -->
<g id="node7" class="node">
<title>DynamicTableIconContainerDirective</title>
<polygon fill="#ffffb3" stroke="#000000" points="1538.8553,-122 1307.1447,-122 1307.1447,-86 1538.8553,-86 1538.8553,-122"/>
<text text-anchor="middle" x="1423" y="-99.8" font-family="Times,serif" font-size="14.00" fill="#000000">DynamicTableIconContainerDirective</text>
</g>
<!-- DynamicTableIconContainerDirective&#45;&gt;DynamicTableModule -->
<g id="edge7" class="edge">
<title>DynamicTableIconContainerDirective&#45;&gt;DynamicTableModule</title>
<path fill="none" stroke="#000000" d="M1512.6539,-122.1061C1512.6539,-122.1061 1512.6539,-140.991 1512.6539,-140.991"/>
<polygon fill="#000000" stroke="#000000" points="1509.154,-140.9909 1512.6539,-150.991 1516.154,-140.991 1509.154,-140.9909"/>
</g>
<!-- DynamicTableTitleContainerDirective -->
<g id="node8" class="node">
<title>DynamicTableTitleContainerDirective</title>
<polygon fill="#ffffb3" stroke="#000000" points="1289.4188,-122 1056.5812,-122 1056.5812,-86 1289.4188,-86 1289.4188,-122"/>
<text text-anchor="middle" x="1173" y="-99.8" font-family="Times,serif" font-size="14.00" fill="#000000">DynamicTableTitleContainerDirective</text>
</g>
<!-- DynamicTableTitleContainerDirective&#45;&gt;DynamicTableModule -->
<g id="edge8" class="edge">
<title>DynamicTableTitleContainerDirective&#45;&gt;DynamicTableModule</title>
<path fill="none" stroke="#000000" d="M1228.516,-122.1243C1228.516,-136.7832 1228.516,-155 1228.516,-155 1228.516,-155 1476.5069,-155 1476.5069,-155"/>
<polygon fill="#000000" stroke="#000000" points="1476.5069,-158.5001 1486.5069,-155 1476.5068,-151.5001 1476.5069,-158.5001"/>
</g>
<!-- PalTableAdditionalInfoContainerDirective -->
<g id="node9" class="node">
<title>PalTableAdditionalInfoContainerDirective</title>
<polygon fill="#ffffb3" stroke="#000000" points="1038.2555,-122 781.7445,-122 781.7445,-86 1038.2555,-86 1038.2555,-122"/>
<text text-anchor="middle" x="910" y="-99.8" font-family="Times,serif" font-size="14.00" fill="#000000">PalTableAdditionalInfoContainerDirective</text>
</g>
<!-- PalTableAdditionalInfoContainerDirective&#45;&gt;DynamicTableModule -->
<g id="edge9" class="edge">
<title>PalTableAdditionalInfoContainerDirective&#45;&gt;DynamicTableModule</title>
<path fill="none" stroke="#000000" d="M975.4592,-122.0091C975.4592,-138.0494 975.4592,-159 975.4592,-159 975.4592,-159 1476.5691,-159 1476.5691,-159"/>
<polygon fill="#000000" stroke="#000000" points="1476.5691,-162.5001 1486.5691,-159 1476.569,-155.5001 1476.5691,-162.5001"/>
</g>
<!-- TableInstanceComponent -->
<g id="node10" class="node">
<title>TableInstanceComponent</title>
<polygon fill="#ffffb3" stroke="#000000" points="763.8445,-122 604.1555,-122 604.1555,-86 763.8445,-86 763.8445,-122"/>
<text text-anchor="middle" x="684" y="-99.8" font-family="Times,serif" font-size="14.00" fill="#000000">TableInstanceComponent</text>
</g>
<!-- TableInstanceComponent&#45;&gt;DynamicTableModule -->
<g id="edge10" class="edge">
<title>TableInstanceComponent&#45;&gt;DynamicTableModule</title>
<path fill="none" stroke="#000000" d="M699.5223,-122.0336C699.5223,-139.0597 699.5223,-162 699.5223,-162 699.5223,-162 1476.6504,-162 1476.6504,-162"/>
<polygon fill="#000000" stroke="#000000" points="1476.6505,-165.5001 1486.6504,-162 1476.6504,-158.5001 1476.6505,-165.5001"/>
</g>
<!-- DynamicTableActionsContainerDirective  -->
<g id="node12" class="node">
<title>DynamicTableActionsContainerDirective </title>
<polygon fill="#fb8072" stroke="#000000" points="2707.5272,-252 2454.4728,-252 2454.4728,-216 2707.5272,-216 2707.5272,-252"/>
<text text-anchor="middle" x="2581" y="-229.8" font-family="Times,serif" font-size="14.00" fill="#000000">DynamicTableActionsContainerDirective </text>
</g>
<!-- DynamicTableModule&#45;&gt;DynamicTableActionsContainerDirective  -->
<g id="edge11" class="edge">
<title>DynamicTableModule&#45;&gt;DynamicTableActionsContainerDirective </title>
<path fill="none" stroke="#000000" stroke-dasharray="5,2" d="M1629.3479,-173C1850.1066,-173 2507.2488,-173 2507.2488,-173 2507.2488,-173 2507.2488,-205.698 2507.2488,-205.698"/>
<polygon fill="#000000" stroke="#000000" points="2503.7488,-205.698 2507.2488,-215.698 2510.7488,-205.698 2503.7488,-205.698"/>
</g>
<!-- DynamicTableComponent  -->
<g id="node13" class="node">
<title>DynamicTableComponent </title>
<polygon fill="#fb8072" stroke="#000000" points="2436.0218,-252 2267.9782,-252 2267.9782,-216 2436.0218,-216 2436.0218,-252"/>
<text text-anchor="middle" x="2352" y="-229.8" font-family="Times,serif" font-size="14.00" fill="#000000">DynamicTableComponent </text>
</g>
<!-- DynamicTableModule&#45;&gt;DynamicTableComponent  -->
<g id="edge12" class="edge">
<title>DynamicTableModule&#45;&gt;DynamicTableComponent </title>
<path fill="none" stroke="#000000" stroke-dasharray="5,2" d="M1629.2465,-177C1819.0621,-177 2322.6145,-177 2322.6145,-177 2322.6145,-177 2322.6145,-205.9648 2322.6145,-205.9648"/>
<polygon fill="#000000" stroke="#000000" points="2319.1146,-205.9648 2322.6145,-215.9648 2326.1146,-205.9649 2319.1146,-205.9648"/>
</g>
<!-- DynamicTableContainerDirective  -->
<g id="node14" class="node">
<title>DynamicTableContainerDirective </title>
<polygon fill="#fb8072" stroke="#000000" points="2249.9798,-252 2040.0202,-252 2040.0202,-216 2249.9798,-216 2249.9798,-252"/>
<text text-anchor="middle" x="2145" y="-229.8" font-family="Times,serif" font-size="14.00" fill="#000000">DynamicTableContainerDirective </text>
</g>
<!-- DynamicTableModule&#45;&gt;DynamicTableContainerDirective  -->
<g id="edge13" class="edge">
<title>DynamicTableModule&#45;&gt;DynamicTableContainerDirective </title>
<path fill="none" stroke="#000000" stroke-dasharray="5,2" d="M1629.4845,-180C1775.9174,-180 2096.3179,-180 2096.3179,-180 2096.3179,-180 2096.3179,-205.7181 2096.3179,-205.7181"/>
<polygon fill="#000000" stroke="#000000" points="2092.8179,-205.718 2096.3179,-215.7181 2099.8179,-205.7181 2092.8179,-205.718"/>
</g>
<!-- DynamicTableContentSummaryContainerDirective  -->
<g id="node15" class="node">
<title>DynamicTableContentSummaryContainerDirective </title>
<polygon fill="#fb8072" stroke="#000000" points="2022.2513,-252 1713.7487,-252 1713.7487,-216 2022.2513,-216 2022.2513,-252"/>
<text text-anchor="middle" x="1868" y="-229.8" font-family="Times,serif" font-size="14.00" fill="#000000">DynamicTableContentSummaryContainerDirective </text>
</g>
<!-- DynamicTableModule&#45;&gt;DynamicTableContentSummaryContainerDirective  -->
<g id="edge14" class="edge">
<title>DynamicTableModule&#45;&gt;DynamicTableContentSummaryContainerDirective </title>
<path fill="none" stroke="#000000" stroke-dasharray="5,2" d="M1629.3091,-184C1691.3054,-184 1771.2604,-184 1771.2604,-184 1771.2604,-184 1771.2604,-205.9489 1771.2604,-205.9489"/>
<polygon fill="#000000" stroke="#000000" points="1767.7604,-205.9488 1771.2604,-215.9489 1774.7604,-205.9489 1767.7604,-205.9488"/>
</g>
<!-- DynamicTableDescriptionContainerDirective  -->
<g id="node16" class="node">
<title>DynamicTableDescriptionContainerDirective </title>
<polygon fill="#fb8072" stroke="#000000" points="1695.7928,-252 1420.2072,-252 1420.2072,-216 1695.7928,-216 1695.7928,-252"/>
<text text-anchor="middle" x="1558" y="-229.8" font-family="Times,serif" font-size="14.00" fill="#000000">DynamicTableDescriptionContainerDirective </text>
</g>
<!-- DynamicTableModule&#45;&gt;DynamicTableDescriptionContainerDirective  -->
<g id="edge15" class="edge">
<title>DynamicTableModule&#45;&gt;DynamicTableDescriptionContainerDirective </title>
<path fill="none" stroke="#000000" stroke-dasharray="5,2" d="M1558,-187.1061C1558,-187.1061 1558,-205.991 1558,-205.991"/>
<polygon fill="#000000" stroke="#000000" points="1554.5001,-205.9909 1558,-215.991 1561.5001,-205.991 1554.5001,-205.9909"/>
</g>
<!-- DynamicTableIconContainerDirective  -->
<g id="node17" class="node">
<title>DynamicTableIconContainerDirective </title>
<polygon fill="#fb8072" stroke="#000000" points="1402.355,-252 1167.645,-252 1167.645,-216 1402.355,-216 1402.355,-252"/>
<text text-anchor="middle" x="1285" y="-229.8" font-family="Times,serif" font-size="14.00" fill="#000000">DynamicTableIconContainerDirective </text>
</g>
<!-- DynamicTableModule&#45;&gt;DynamicTableIconContainerDirective  -->
<g id="edge16" class="edge">
<title>DynamicTableModule&#45;&gt;DynamicTableIconContainerDirective </title>
<path fill="none" stroke="#000000" stroke-dasharray="5,2" d="M1486.6713,-184C1428.1429,-184 1354.875,-184 1354.875,-184 1354.875,-184 1354.875,-205.9489 1354.875,-205.9489"/>
<polygon fill="#000000" stroke="#000000" points="1351.3751,-205.9488 1354.875,-215.9489 1358.3751,-205.9489 1351.3751,-205.9488"/>
</g>
<!-- DynamicTableTitleContainerDirective  -->
<g id="node18" class="node">
<title>DynamicTableTitleContainerDirective </title>
<polygon fill="#fb8072" stroke="#000000" points="1149.4192,-252 912.5808,-252 912.5808,-216 1149.4192,-216 1149.4192,-252"/>
<text text-anchor="middle" x="1031" y="-229.8" font-family="Times,serif" font-size="14.00" fill="#000000">DynamicTableTitleContainerDirective </text>
</g>
<!-- DynamicTableModule&#45;&gt;DynamicTableTitleContainerDirective  -->
<g id="edge17" class="edge">
<title>DynamicTableModule&#45;&gt;DynamicTableTitleContainerDirective </title>
<path fill="none" stroke="#000000" stroke-dasharray="5,2" d="M1486.6365,-180C1358.5496,-180 1102.875,-180 1102.875,-180 1102.875,-180 1102.875,-205.7181 1102.875,-205.7181"/>
<polygon fill="#000000" stroke="#000000" points="1099.3751,-205.718 1102.875,-215.7181 1106.3751,-205.7181 1099.3751,-205.718"/>
</g>
<!-- PalTableAdditionalInfoContainerDirective  -->
<g id="node19" class="node">
<title>PalTableAdditionalInfoContainerDirective </title>
<polygon fill="#fb8072" stroke="#000000" points="894.7555,-252 635.2445,-252 635.2445,-216 894.7555,-216 894.7555,-252"/>
<text text-anchor="middle" x="765" y="-229.8" font-family="Times,serif" font-size="14.00" fill="#000000">PalTableAdditionalInfoContainerDirective </text>
</g>
<!-- DynamicTableModule&#45;&gt;PalTableAdditionalInfoContainerDirective  -->
<g id="edge18" class="edge">
<title>DynamicTableModule&#45;&gt;PalTableAdditionalInfoContainerDirective </title>
<path fill="none" stroke="#000000" stroke-dasharray="5,2" d="M1486.6997,-177C1304.9137,-177 838.375,-177 838.375,-177 838.375,-177 838.375,-205.9648 838.375,-205.9648"/>
<polygon fill="#000000" stroke="#000000" points="834.8751,-205.9648 838.375,-215.9648 841.8751,-205.9649 834.8751,-205.9648"/>
</g>
<!-- TableInstanceComponent  -->
<g id="node20" class="node">
<title>TableInstanceComponent </title>
<polygon fill="#fb8072" stroke="#000000" points="616.8448,-252 453.1552,-252 453.1552,-216 616.8448,-216 616.8448,-252"/>
<text text-anchor="middle" x="535" y="-229.8" font-family="Times,serif" font-size="14.00" fill="#000000">TableInstanceComponent </text>
</g>
<!-- DynamicTableModule&#45;&gt;TableInstanceComponent  -->
<g id="edge19" class="edge">
<title>DynamicTableModule&#45;&gt;TableInstanceComponent </title>
<path fill="none" stroke="#000000" stroke-dasharray="5,2" d="M1486.3857,-173C1265.6233,-173 610.375,-173 610.375,-173 610.375,-173 610.375,-205.698 610.375,-205.698"/>
<polygon fill="#000000" stroke="#000000" points="606.8751,-205.698 610.375,-215.698 613.8751,-205.698 606.8751,-205.698"/>
</g>
<!-- DynamicTableDataProvider -->
<g id="node21" class="node">
<title>DynamicTableDataProvider</title>
<ellipse fill="#fdb462" stroke="#000000" cx="460" cy="-104" rx="119.8024" ry="18"/>
<text text-anchor="middle" x="460" y="-99.8" font-family="Times,serif" font-size="14.00" fill="#000000">DynamicTableDataProvider</text>
</g>
<!-- DynamicTableDataProvider&#45;&gt;DynamicTableModule -->
<g id="edge20" class="edge">
<title>DynamicTableDataProvider&#45;&gt;DynamicTableModule</title>
<path fill="none" stroke="#000000" d="M516.6145,-119.9665C516.6145,-138.3367 516.6145,-166 516.6145,-166 516.6145,-166 1476.4214,-166 1476.4214,-166"/>
<polygon fill="#000000" stroke="#000000" points="1476.4214,-169.5001 1486.4214,-166 1476.4213,-162.5001 1476.4214,-169.5001"/>
</g>
<!-- DynamicTableDynamicCellBuilder -->
<g id="node22" class="node">
<title>DynamicTableDynamicCellBuilder</title>
<ellipse fill="#fdb462" stroke="#000000" cx="173" cy="-104" rx="148.7538" ry="18"/>
<text text-anchor="middle" x="173" y="-99.8" font-family="Times,serif" font-size="14.00" fill="#000000">DynamicTableDynamicCellBuilder</text>
</g>
<!-- DynamicTableDynamicCellBuilder&#45;&gt;DynamicTableModule -->
<g id="edge21" class="edge">
<title>DynamicTableDynamicCellBuilder&#45;&gt;DynamicTableModule</title>
<path fill="none" stroke="#000000" d="M173,-122.1061C173,-141.3391 173,-169 173,-169 173,-169 1476.4529,-169 1476.4529,-169"/>
<polygon fill="#000000" stroke="#000000" points="1476.4529,-172.5001 1486.4529,-169 1476.4528,-165.5001 1476.4529,-172.5001"/>
</g>
</g>
</svg>
