<?xml version="1.0" encoding="UTF-8" standalone="no"?>
<!DOCTYPE svg PUBLIC "-//W3C//DTD SVG 1.1//EN"
 "http://www.w3.org/Graphics/SVG/1.1/DTD/svg11.dtd">
<!-- Generated by graphviz version 2.40.1 (20161225.0304)
 -->
<!-- Title: dependencies Pages: 1 -->
<svg width="1050pt" height="284pt"
 viewBox="0.00 0.00 1050.00 284.00" xmlns="http://www.w3.org/2000/svg" xmlns:xlink="http://www.w3.org/1999/xlink">
<g id="graph0" class="graph" transform="scale(1 1) rotate(0) translate(4 280)">
<title>dependencies</title>
<polygon fill="#ffffff" stroke="transparent" points="-4,4 -4,-280 1046,-280 1046,4 -4,4"/>
<text text-anchor="start" x="500.0091" y="-42.4" font-family="sans-serif" font-weight="bold" font-size="14.00" fill="#000000">Legend</text>
<polygon fill="#ffffb3" stroke="transparent" points="287,-10 287,-30 307,-30 307,-10 287,-10"/>
<text text-anchor="start" x="310.629" y="-15.4" font-family="sans-serif" font-size="14.00" fill="#000000"> &#160;Declarations</text>
<polygon fill="#8dd3c7" stroke="transparent" points="400,-10 400,-30 420,-30 420,-10 400,-10"/>
<text text-anchor="start" x="423.7251" y="-15.4" font-family="sans-serif" font-size="14.00" fill="#000000"> &#160;Module</text>
<polygon fill="#80b1d3" stroke="transparent" points="486,-10 486,-30 506,-30 506,-10 486,-10"/>
<text text-anchor="start" x="509.7812" y="-15.4" font-family="sans-serif" font-size="14.00" fill="#000000"> &#160;Bootstrap</text>
<polygon fill="#fdb462" stroke="transparent" points="583,-10 583,-30 603,-30 603,-10 583,-10"/>
<text text-anchor="start" x="606.6732" y="-15.4" font-family="sans-serif" font-size="14.00" fill="#000000"> &#160;Providers</text>
<polygon fill="#fb8072" stroke="transparent" points="679,-10 679,-30 699,-30 699,-10 679,-10"/>
<text text-anchor="start" x="702.7258" y="-15.4" font-family="sans-serif" font-size="14.00" fill="#000000"> &#160;Exports</text>
<g id="clust1" class="cluster">
<title>cluster_DynamicExpandableTableModule</title>
<polygon fill="none" stroke="#000000" stroke-dasharray="1,5" points="8,-70 8,-268 1034,-268 1034,-70 8,-70"/>
</g>
<g id="clust2" class="cluster">
<title>cluster_DynamicExpandableTableModule_declarations</title>
<polygon fill="none" stroke="#000000" points="536,-78 536,-130 1026,-130 1026,-78 536,-78"/>
</g>
<g id="clust5" class="cluster">
<title>cluster_DynamicExpandableTableModule_imports</title>
<polygon fill="none" stroke="#000000" points="370,-78 370,-130 528,-130 528,-78 370,-78"/>
</g>
<g id="clust6" class="cluster">
<title>cluster_DynamicExpandableTableModule_exports</title>
<polygon fill="none" stroke="#000000" points="201,-208 201,-260 699,-260 699,-208 201,-208"/>
</g>
<g id="clust8" class="cluster">
<title>cluster_DynamicExpandableTableModule_providers</title>
<polygon fill="none" stroke="#000000" points="16,-78 16,-130 362,-130 362,-78 16,-78"/>
</g>
<!-- DynamicExpandableTableComponent -->
<g id="node1" class="node">
<title>DynamicExpandableTableComponent</title>
<polygon fill="#ffffb3" stroke="#000000" points="1018.1091,-122 787.8909,-122 787.8909,-86 1018.1091,-86 1018.1091,-122"/>
<text text-anchor="middle" x="903" y="-99.8" font-family="Times,serif" font-size="14.00" fill="#000000">DynamicExpandableTableComponent</text>
</g>
<!-- DynamicExpandableTableModule -->
<g id="node3" class="node">
<title>DynamicExpandableTableModule</title>
<polygon fill="#8dd3c7" stroke="#000000" points="553.3263,-187 550.3263,-191 529.3263,-191 526.3263,-187 344.6737,-187 344.6737,-151 553.3263,-151 553.3263,-187"/>
<text text-anchor="middle" x="449" y="-164.8" font-family="Times,serif" font-size="14.00" fill="#000000">DynamicExpandableTableModule</text>
</g>
<!-- DynamicExpandableTableComponent&#45;&gt;DynamicExpandableTableModule -->
<g id="edge1" class="edge">
<title>DynamicExpandableTableComponent&#45;&gt;DynamicExpandableTableModule</title>
<path fill="none" stroke="#000000" d="M903,-122.1061C903,-141.3391 903,-169 903,-169 903,-169 563.4417,-169 563.4417,-169"/>
<polygon fill="#000000" stroke="#000000" points="563.4417,-165.5001 553.4417,-169 563.4416,-172.5001 563.4417,-165.5001"/>
</g>
<!-- ExpandableTableInstanceComponent -->
<g id="node2" class="node">
<title>ExpandableTableInstanceComponent</title>
<polygon fill="#ffffb3" stroke="#000000" points="769.9314,-122 544.0686,-122 544.0686,-86 769.9314,-86 769.9314,-122"/>
<text text-anchor="middle" x="657" y="-99.8" font-family="Times,serif" font-size="14.00" fill="#000000">ExpandableTableInstanceComponent</text>
</g>
<!-- ExpandableTableInstanceComponent&#45;&gt;DynamicExpandableTableModule -->
<g id="edge2" class="edge">
<title>ExpandableTableInstanceComponent&#45;&gt;DynamicExpandableTableModule</title>
<path fill="none" stroke="#000000" d="M548.7237,-122.1061C548.7237,-122.1061 548.7237,-140.991 548.7237,-140.991"/>
<polygon fill="#000000" stroke="#000000" points="545.2238,-140.9909 548.7237,-150.991 552.2238,-140.991 545.2238,-140.9909"/>
</g>
<!-- DynamicExpandableTableComponent  -->
<g id="node5" class="node">
<title>DynamicExpandableTableComponent </title>
<polygon fill="#fb8072" stroke="#000000" points="691.1088,-252 456.8912,-252 456.8912,-216 691.1088,-216 691.1088,-252"/>
<text text-anchor="middle" x="574" y="-229.8" font-family="Times,serif" font-size="14.00" fill="#000000">DynamicExpandableTableComponent </text>
</g>
<!-- DynamicExpandableTableModule&#45;&gt;DynamicExpandableTableComponent  -->
<g id="edge5" class="edge">
<title>DynamicExpandableTableModule&#45;&gt;DynamicExpandableTableComponent </title>
<path fill="none" stroke="#000000" stroke-dasharray="5,2" d="M505.1794,-187.1061C505.1794,-187.1061 505.1794,-205.991 505.1794,-205.991"/>
<polygon fill="#000000" stroke="#000000" points="501.6794,-205.9909 505.1794,-215.991 508.6794,-205.991 501.6794,-205.9909"/>
</g>
<!-- ExpandableTableInstanceComponent  -->
<g id="node6" class="node">
<title>ExpandableTableInstanceComponent </title>
<polygon fill="#fb8072" stroke="#000000" points="438.9318,-252 209.0682,-252 209.0682,-216 438.9318,-216 438.9318,-252"/>
<text text-anchor="middle" x="324" y="-229.8" font-family="Times,serif" font-size="14.00" fill="#000000">ExpandableTableInstanceComponent </text>
</g>
<!-- DynamicExpandableTableModule&#45;&gt;ExpandableTableInstanceComponent  -->
<g id="edge6" class="edge">
<title>DynamicExpandableTableModule&#45;&gt;ExpandableTableInstanceComponent </title>
<path fill="none" stroke="#000000" stroke-dasharray="5,2" d="M391.6513,-187.1061C391.6513,-187.1061 391.6513,-205.991 391.6513,-205.991"/>
<polygon fill="#000000" stroke="#000000" points="388.1514,-205.9909 391.6513,-215.991 395.1514,-205.991 388.1514,-205.9909"/>
</g>
<!-- DynamicTableModule -->
<g id="node4" class="node">
<title>DynamicTableModule</title>
<polygon fill="#8dd3c7" stroke="#000000" points="520.2394,-122 517.2394,-126 496.2394,-126 493.2394,-122 377.7606,-122 377.7606,-86 520.2394,-86 520.2394,-122"/>
<text text-anchor="middle" x="449" y="-99.8" font-family="Times,serif" font-size="14.00" fill="#000000">DynamicTableModule</text>
</g>
<!-- DynamicTableModule&#45;&gt;DynamicExpandableTableModule -->
<g id="edge3" class="edge">
<title>DynamicTableModule&#45;&gt;DynamicExpandableTableModule</title>
<path fill="none" stroke="#000000" d="M472.7899,-122.1061C472.7899,-122.1061 472.7899,-140.991 472.7899,-140.991"/>
<polygon fill="#000000" stroke="#000000" points="469.29,-140.9909 472.7899,-150.991 476.29,-140.991 469.29,-140.9909"/>
</g>
<!-- DynamicTableModule&#45;&gt;DynamicExpandableTableModule -->
<g id="edge4" class="edge">
<title>DynamicTableModule&#45;&gt;DynamicExpandableTableModule</title>
<path fill="none" stroke="#000000" d="M425.2101,-122.1061C425.2101,-122.1061 425.2101,-140.991 425.2101,-140.991"/>
<polygon fill="#000000" stroke="#000000" points="421.7102,-140.9909 425.2101,-150.991 428.7102,-140.991 421.7102,-140.9909"/>
</g>
<!-- DynamicExpandableTableDataProvider -->
<g id="node7" class="node">
<title>DynamicExpandableTableDataProvider</title>
<ellipse fill="#fdb462" stroke="#000000" cx="189" cy="-104" rx="165.4736" ry="18"/>
<text text-anchor="middle" x="189" y="-99.8" font-family="Times,serif" font-size="14.00" fill="#000000">DynamicExpandableTableDataProvider</text>
</g>
<!-- DynamicExpandableTableDataProvider&#45;&gt;DynamicExpandableTableModule -->
<g id="edge7" class="edge">
<title>DynamicExpandableTableDataProvider&#45;&gt;DynamicExpandableTableModule</title>
<path fill="none" stroke="#000000" d="M349.5368,-108.6746C349.5368,-108.6746 349.5368,-140.7398 349.5368,-140.7398"/>
<polygon fill="#000000" stroke="#000000" points="346.0369,-140.7398 349.5368,-150.7398 353.0369,-140.7399 346.0369,-140.7398"/>
</g>
</g>
</svg>
